<?xml version="1.0" encoding="UTF-8"?>
<svg width="77px" height="53px" viewBox="0 0 77 53" version="1.1" xmlns="http://www.w3.org/2000/svg" xmlns:xlink="http://www.w3.org/1999/xlink">
    <!-- Generator: Sketch 50.2 (55047) - http://www.bohemiancoding.com/sketch -->
    <title>alex-baker-logo</title>
    <desc>Created with Sketch.</desc>
    <defs>
        <linearGradient x1="6.4073113%" y1="50%" x2="97.2212165%" y2="50%" id="linearGradient-1">
            <stop stop-color="#F31212" offset="0%"></stop>
            <stop stop-color="#F16F4F" offset="100%"></stop>
        </linearGradient>
    </defs>
    <g id="Page-1" stroke="none" stroke-width="1" fill="none" fill-rule="evenodd">
        <g id="alex-baker-logo" fill="url(#linearGradient-1)" fill-rule="nonzero">
            <path d="M10.1875,0.625 L22.9375,0.625 C23.1041675,0.625 28.2291162,13.8748675 38.3125,40.375 L38.9375,41.875 L38.8125,42 L31.1875,42 C30.9999991,42 29.9166766,39.2916937 27.9375,33.875 L13.0625,33.875 C11.1041569,39.2916937 10.0208344,42 9.8125,42 L2.3125,42 L2.1875,41.875 L2.0625,41.875 L5.1875,33.625 L0.5625,25.625 L0.6875,25.5 L8.4375,25.5 L14.6875,8.875 L10.1875,0.625 Z M20.4375,14.625 L16.0625,26.375 L24.9375,26.375 L20.5625,14.625 L20.4375,14.625 Z M60.1875,0.375 C64.85419,0.375 68.52082,2.9583075 71.1875,8.125 C71.6875025,9.77084156 71.9375,11.1041616 71.9375,12.125 L71.9375,13.375 C71.9375,14.70834 71.3958387,16.5833212 70.3125,19 C74.5625213,21.6041797 76.6875,25.0624784 76.6875,29.375 L76.6875,30.125 C76.6875,35.1458584 73.8958612,38.9374872 68.3125,41.5 C66.9166597,41.833335 65.7500047,42 64.8125,42 L42.3125,42 C41.9999984,41.6874984 41.3337378,39.1668036 38.8125,33.875 L38.9375,33.75 L42.1875,33.75 L42.1875,8.875 C42.1875,8.60416531 40.6458488,5.81252656 37.5625,0.5 L37.6875,0.375 L60.1875,0.375 Z M49.6875,7.75 L49.6875,17.5 L58.3125,17.5 C61.3750153,17.5 63.3333291,16.50001 64.1875,14.5 L64.4375,12.875 L64.4375,12 C64.4375,10.1458241 63.1458462,8.77083781 60.5625,7.875 L58.6875,7.75 L49.6875,7.75 Z M49.6875,24.875 L49.6875,34.625 L63.4375,34.625 C66.3125144,34.625 68.1458294,33.5833437 68.9375,31.5 L69.3125,29.75 C69.3125,27.5624891 68.1041788,26.0208378 65.6875,25.125 C65.2499978,24.9583325 64.3750066,24.875 63.0625,24.875 L49.6875,24.875 Z" id="AB"></path>
            <path d="M3.80803107,44.93 C4.82645698,44.93 5.30684656,45.62 5.30684656,46.68 L5.30684656,46.87 L4.59586998,46.87 L4.59586998,46.64 C4.59586998,46.01 4.36528298,45.64 3.82724665,45.64 C3.28921033,45.64 3.05862333,46.01 3.05862333,46.63 C3.05862333,48.1999999 5.31645435,48.3499999 5.31645435,50.3199999 C5.31645435,51.3799999 4.82645698,52.0699999 3.79842328,52.0699999 C2.77038958,52.0699999 2.29,51.3799999 2.29,50.3199999 L2.29,49.9199999 L2.99136879,49.9199999 L2.99136879,50.3599999 C2.99136879,50.9899999 3.24117137,51.3599999 3.7792077,51.3599999 C4.31724403,51.3599999 4.56704661,50.9899999 4.56704661,50.3599999 C4.56704661,48.7999999 2.31882337,48.6499999 2.31882337,46.68 C2.31882337,45.6 2.79921295,44.93 3.80803107,44.93 Z M5.91213743,50.3099999 L5.91213743,46.69 C5.91213743,45.62 6.42135038,44.93 7.44938408,44.93 C8.48702557,44.93 8.99623853,45.62 8.99623853,46.69 L8.99623853,50.3099999 C8.99623853,51.3699999 8.48702557,52.0699999 7.44938408,52.0699999 C6.42135038,52.0699999 5.91213743,51.3699999 5.91213743,50.3099999 Z M6.65193738,46.65 L6.65193738,50.3499999 C6.65193738,50.9899999 6.91134775,51.3599999 7.44938408,51.3599999 C7.9970282,51.3599999 8.24683079,50.9899999 8.24683079,50.3499999 L8.24683079,46.65 C8.24683079,46.02 7.9970282,45.64 7.44938408,45.64 C6.91134775,45.64 6.65193738,46.02 6.65193738,46.65 Z M10.4566229,48.2599999 L12.0034773,48.2599999 L12.0034773,48.9699999 L10.4566229,48.9699999 L10.4566229,51.9999999 L9.70721511,51.9999999 L9.70721511,45 L12.3781812,45 L12.3781812,45.71 L10.4566229,45.71 L10.4566229,48.2599999 Z M14.7032667,51.9999999 L13.953859,51.9999999 L13.953859,45.71 L12.7144539,45.71 L12.7144539,45 L15.9426718,45 L15.9426718,45.71 L14.7032667,45.71 L14.7032667,51.9999999 Z M18.9114794,47.25 L18.2485418,51.9999999 L17.2205081,51.9999999 L16.2981601,45 L17.0283523,45 L17.8161912,50.9599999 L18.565599,45.01 L19.3053989,45.01 L20.0451989,50.9699999 L20.8042144,45 L21.4575442,45 L20.544804,51.9999999 L19.5552015,51.9999999 L18.9114794,47.25 Z M24.3783129,50.5899999 L22.6777338,50.5899999 L22.4183234,51.9999999 L21.7265624,51.9999999 L23.0140065,45 L24.0996869,45 L25.387131,51.9999999 L24.6377232,51.9999999 L24.3783129,50.5899999 Z M23.5136116,45.88 L22.7738117,49.9199999 L24.2726272,49.9199999 L23.5136116,45.88 Z M25.9732063,45 L27.4720218,45 C28.5288788,45 28.9708372,45.56 28.9708372,46.6 L28.9708372,47.17 C28.9708372,47.9399999 28.7114269,48.4199999 28.1349594,48.6099999 C28.749858,48.7999999 28.980445,49.3199999 28.980445,50.0699999 L28.980445,51.1599999 C28.980445,51.4699999 28.9900528,51.7599999 29.1149541,51.9999999 L28.3559386,51.9999999 C28.2694685,51.7999999 28.2310373,51.6199999 28.2310373,51.1499999 L28.2310373,50.0499999 C28.2310373,49.2599999 27.875549,49.0099999 27.2510425,49.0099999 L26.722614,49.0099999 L26.722614,51.9999999 L25.9732063,51.9999999 L25.9732063,45 Z M26.722614,48.2999999 L27.2798659,48.2999999 C27.875549,48.2999999 28.2310373,48.0999999 28.2310373,47.34 L28.2310373,46.67 C28.2310373,46.04 28.0100581,45.71 27.4528062,45.71 L26.722614,45.71 L26.722614,48.2999999 Z M30.5080839,48.0999999 L32.1510163,48.0999999 L32.1510163,48.7999999 L30.5080839,48.7999999 L30.5080839,51.2899999 L32.5257201,51.2899999 L32.5257201,51.9999999 L29.7586762,51.9999999 L29.7586762,45 L32.5257201,45 L32.5257201,45.71 L30.5080839,45.71 L30.5080839,48.0999999 Z M34.7066888,45 L36.2823666,45 C37.3296159,45 37.8100055,45.66 37.8100055,46.74 L37.8100055,50.2699999 C37.8100055,51.3399999 37.3296159,51.9999999 36.2823666,51.9999999 L34.7066888,51.9999999 L34.7066888,45 Z M35.4560966,51.2899999 L36.2727589,51.2899999 C36.8107952,51.2899999 37.0702056,50.9399999 37.0702056,50.2999999 L37.0702056,46.7 C37.0702056,46.06 36.8107952,45.71 36.2631511,45.71 L35.4560966,45.71 L35.4560966,51.2899999 Z M39.260782,48.0999999 L40.9037144,48.0999999 L40.9037144,48.7999999 L39.260782,48.7999999 L39.260782,51.2899999 L41.2784183,51.2899999 L41.2784183,51.9999999 L38.5113743,51.9999999 L38.5113743,45 L41.2784183,45 L41.2784183,45.71 L39.260782,45.71 L39.260782,48.0999999 Z M41.7780234,45 L42.537039,45 L43.6323272,51.0899999 L44.7180077,45 L45.4097687,45 L44.151148,51.9999999 L43.0462519,51.9999999 L41.7780234,45 Z M52.5003188,51.9999999 L49.8293528,51.9999999 L49.8293528,45 L50.5787605,45 L50.5787605,51.2899999 L52.5003188,51.2899999 L52.5003188,51.9999999 Z M53.0095318,50.3099999 L53.0095318,46.69 C53.0095318,45.62 53.5187448,44.93 54.5467785,44.93 C55.5844199,44.93 56.0936329,45.62 56.0936329,46.69 L56.0936329,50.3099999 C56.0936329,51.3699999 55.5844199,52.0699999 54.5467785,52.0699999 C53.5187448,52.0699999 53.0095318,51.3699999 53.0095318,50.3099999 Z M53.7493318,46.65 L53.7493318,50.3499999 C53.7493318,50.9899999 54.0087421,51.3599999 54.5467785,51.3599999 C55.0944226,51.3599999 55.3442252,50.9899999 55.3442252,50.3499999 L55.3442252,46.65 C55.3442252,46.02 55.0944226,45.64 54.5467785,45.64 C54.0087421,45.64 53.7493318,46.02 53.7493318,46.65 Z M56.8046095,45 L58.2746016,45 C59.3314587,45 59.7830249,45.65 59.7830249,46.71 L59.7830249,47.55 C59.7830249,48.6599999 59.2834197,49.2399999 58.2169548,49.2399999 L57.5540172,49.2399999 L57.5540172,51.9999999 L56.8046095,51.9999999 L56.8046095,45 Z M57.5540172,48.5399999 L58.2169548,48.5399999 C58.7742068,48.5399999 59.0432249,48.2699999 59.0432249,47.6 L59.0432249,46.67 C59.0432249,46.03 58.8222457,45.71 58.2746016,45.71 L57.5540172,45.71 L57.5540172,48.5399999 Z M63.9431986,46.37 L62.8767338,51.9899999 L62.1561494,51.9899999 L61.0416456,46.42 L61.0416456,51.9999999 L60.3883157,51.9999999 L60.3883157,45 L61.435565,45 L62.5404611,50.5899999 L63.6069259,45 L64.6541752,45 L64.6541752,51.9999999 L63.9431986,51.9999999 L63.9431986,46.37 Z M66.1722063,48.0999999 L67.8151386,48.0999999 L67.8151386,48.7999999 L66.1722063,48.7999999 L66.1722063,51.2899999 L68.1898425,51.2899999 L68.1898425,51.9999999 L65.4227985,51.9999999 L65.4227985,45 L68.1898425,45 L68.1898425,45.71 L66.1722063,45.71 L66.1722063,48.0999999 Z M46.9566231,48.0999999 L48.5995555,48.0999999 L48.5995555,48.7999999 L46.9566231,48.7999999 L46.9566231,51.2899999 L48.9742593,51.2899999 L48.9742593,51.9999999 L46.2072154,51.9999999 L46.2072154,45 L48.9742593,45 L48.9742593,45.71 L46.9566231,45.71 L46.9566231,48.0999999 Z M69.5445411,46.34 L69.5445411,51.9999999 L68.8719957,51.9999999 L68.8719957,45 L69.8231671,45 L71.3796293,50.0599999 L71.3796293,45 L72.0425669,45 L72.0425669,51.9999999 L71.2643358,51.9999999 L69.5445411,46.34 Z M74.5405927,51.9999999 L73.791185,51.9999999 L73.791185,45.71 L72.5517799,45.71 L72.5517799,45 L75.7799979,45 L75.7799979,45.71 L74.5405927,45.71 L74.5405927,51.9999999 Z" id="SOFTWARE-DEVLOPMENT"></path>
        </g>
    </g>
</svg>