<?xml version="1.0" encoding="UTF-8"?>
<svg width="77px" height="53px" viewBox="0 0 77 53" version="1.1" xmlns="http://www.w3.org/2000/svg" xmlns:xlink="http://www.w3.org/1999/xlink">
    <!-- Generator: Sketch 48.2 (47327) - http://www.bohemiancoding.com/sketch -->
    <title>logo</title>
    <desc>Created with Sketch.</desc>
    <defs>
        <linearGradient x1="6.4073113%" y1="50%" x2="97.2212165%" y2="50%" id="linearGradient-1">
            <stop stop-color="#F31212" offset="0%"></stop>
            <stop stop-color="#F16F4F" offset="100%"></stop>
        </linearGradient>
    </defs>
    <g id="Page-1" stroke="none" stroke-width="1" fill="none" fill-rule="evenodd">
        <g id="logo" fill="url(#linearGradient-1)">
            <path d="M10.1875,0.625 L22.9375,0.625 C23.1041675,0.625 28.2291162,13.8748675 38.3125,40.375 L38.9375,41.875 L38.8125,42 L31.1875,42 C30.9999991,42 29.9166766,39.2916937 27.9375,33.875 L13.0625,33.875 C11.1041569,39.2916937 10.0208344,42 9.8125,42 L2.3125,42 L2.1875,41.875 L2.0625,41.875 L5.1875,33.625 L0.5625,25.625 L0.6875,25.5 L8.4375,25.5 L14.6875,8.875 L10.1875,0.625 Z M20.4375,14.625 L16.0625,26.375 L24.9375,26.375 L20.5625,14.625 L20.4375,14.625 Z M60.1875,0.375 C64.85419,0.375 68.52082,2.9583075 71.1875,8.125 C71.6875025,9.77084156 71.9375,11.1041616 71.9375,12.125 L71.9375,13.375 C71.9375,14.70834 71.3958387,16.5833212 70.3125,19 C74.5625213,21.6041797 76.6875,25.0624784 76.6875,29.375 L76.6875,30.125 C76.6875,35.1458584 73.8958612,38.9374872 68.3125,41.5 C66.9166597,41.833335 65.7500047,42 64.8125,42 L42.3125,42 C41.9999984,41.6874984 41.3337378,39.1668036 38.8125,33.875 L38.9375,33.75 L42.1875,33.75 L42.1875,8.875 C42.1875,8.60416531 40.6458488,5.81252656 37.5625,0.5 L37.6875,0.375 L60.1875,0.375 Z M49.6875,7.75 L49.6875,17.5 L58.3125,17.5 C61.3750153,17.5 63.3333291,16.50001 64.1875,14.5 L64.4375,12.875 L64.4375,12 C64.4375,10.1458241 63.1458462,8.77083781 60.5625,7.875 L58.6875,7.75 L49.6875,7.75 Z M49.6875,24.875 L49.6875,34.625 L63.4375,34.625 C66.3125144,34.625 68.1458294,33.5833437 68.9375,31.5 L69.3125,29.75 C69.3125,27.5624891 68.1041788,26.0208378 65.6875,25.125 C65.2499978,24.9583325 64.3750066,24.875 63.0625,24.875 L49.6875,24.875 Z" id="AB"></path>
            <path d="M3.87,44.93 C4.93,44.93 5.43,45.62 5.43,46.68 L5.43,46.87 L4.69,46.87 L4.69,46.64 C4.69,46.01 4.45,45.64 3.89,45.64 C3.33,45.64 3.09,46.01 3.09,46.63 C3.09,48.2 5.44,48.35 5.44,50.32 C5.44,51.38 4.93,52.07 3.86,52.07 C2.79,52.07 2.29,51.38 2.29,50.32 L2.29,49.92 L3.02,49.92 L3.02,50.36 C3.02,50.99 3.28,51.36 3.84,51.36 C4.4,51.36 4.66,50.99 4.66,50.36 C4.66,48.8 2.32,48.65 2.32,46.68 C2.32,45.6 2.82,44.93 3.87,44.93 Z M6.06,50.31 L6.06,46.69 C6.06,45.62 6.59,44.93 7.66,44.93 C8.74,44.93 9.27,45.62 9.27,46.69 L9.27,50.31 C9.27,51.37 8.74,52.07 7.66,52.07 C6.59,52.07 6.06,51.37 6.06,50.31 Z M6.83,46.65 L6.83,50.35 C6.83,50.99 7.1,51.36 7.66,51.36 C8.23,51.36 8.49,50.99 8.49,50.35 L8.49,46.65 C8.49,46.02 8.23,45.64 7.66,45.64 C7.1,45.64 6.83,46.02 6.83,46.65 Z M10.79,48.26 L12.4,48.26 L12.4,48.97 L10.79,48.97 L10.79,52 L10.01,52 L10.01,45 L12.79,45 L12.79,45.71 L10.79,45.71 L10.79,48.26 Z M15.21,52 L14.43,52 L14.43,45.71 L13.14,45.71 L13.14,45 L16.5,45 L16.5,45.71 L15.21,45.71 L15.21,52 Z M19.59,47.25 L18.9,52 L17.83,52 L16.87,45 L17.63,45 L18.45,50.96 L19.23,45.01 L20,45.01 L20.77,50.97 L21.56,45 L22.24,45 L21.29,52 L20.26,52 L19.59,47.25 Z M25.28,50.59 L23.51,50.59 L23.24,52 L22.52,52 L23.86,45 L24.99,45 L26.33,52 L25.55,52 L25.28,50.59 Z M24.38,45.88 L23.61,49.92 L25.17,49.92 L24.38,45.88 Z M26.94,45 L28.5,45 C29.6,45 30.06,45.56 30.06,46.6 L30.06,47.17 C30.06,47.94 29.79,48.42 29.19,48.61 C29.83,48.8 30.07,49.32 30.07,50.07 L30.07,51.16 C30.07,51.47 30.08,51.76 30.21,52 L29.42,52 C29.33,51.8 29.29,51.62 29.29,51.15 L29.29,50.05 C29.29,49.26 28.92,49.01 28.27,49.01 L27.72,49.01 L27.72,52 L26.94,52 L26.94,45 Z M27.72,48.3 L28.3,48.3 C28.92,48.3 29.29,48.1 29.29,47.34 L29.29,46.67 C29.29,46.04 29.06,45.71 28.48,45.71 L27.72,45.71 L27.72,48.3 Z M31.66,48.1 L33.37,48.1 L33.37,48.8 L31.66,48.8 L31.66,51.29 L33.76,51.29 L33.76,52 L30.88,52 L30.88,45 L33.76,45 L33.76,45.71 L31.66,45.71 L31.66,48.1 Z M36.03,45 L37.67,45 C38.76,45 39.26,45.66 39.26,46.74 L39.26,50.27 C39.26,51.34 38.76,52 37.67,52 L36.03,52 L36.03,45 Z M36.81,51.29 L37.66,51.29 C38.22,51.29 38.49,50.94 38.49,50.3 L38.49,46.7 C38.49,46.06 38.22,45.71 37.65,45.71 L36.81,45.71 L36.81,51.29 Z M40.77,48.1 L42.48,48.1 L42.48,48.8 L40.77,48.8 L40.77,51.29 L42.87,51.29 L42.87,52 L39.99,52 L39.99,45 L42.87,45 L42.87,45.71 L40.77,45.71 L40.77,48.1 Z M43.39,45 L44.18,45 L45.32,51.09 L46.45,45 L47.17,45 L45.86,52 L44.71,52 L43.39,45 Z M50.55,52 L47.77,52 L47.77,45 L48.55,45 L48.55,51.29 L50.55,51.29 L50.55,52 Z M51.08,50.31 L51.08,46.69 C51.08,45.62 51.61,44.93 52.68,44.93 C53.76,44.93 54.29,45.62 54.29,46.69 L54.29,50.31 C54.29,51.37 53.76,52.07 52.68,52.07 C51.61,52.07 51.08,51.37 51.08,50.31 Z M51.85,46.65 L51.85,50.35 C51.85,50.99 52.12,51.36 52.68,51.36 C53.25,51.36 53.51,50.99 53.51,50.35 L53.51,46.65 C53.51,46.02 53.25,45.64 52.68,45.64 C52.12,45.64 51.85,46.02 51.85,46.65 Z M55.03,45 L56.56,45 C57.66,45 58.13,45.65 58.13,46.71 L58.13,47.55 C58.13,48.66 57.61,49.24 56.5,49.24 L55.81,49.24 L55.81,52 L55.03,52 L55.03,45 Z M55.81,48.54 L56.5,48.54 C57.08,48.54 57.36,48.27 57.36,47.6 L57.36,46.67 C57.36,46.03 57.13,45.71 56.56,45.71 L55.81,45.71 L55.81,48.54 Z M62.46,46.37 L61.35,51.99 L60.6,51.99 L59.44,46.42 L59.44,52 L58.76,52 L58.76,45 L59.85,45 L61,50.59 L62.11,45 L63.2,45 L63.2,52 L62.46,52 L62.46,46.37 Z M64.78,48.1 L66.49,48.1 L66.49,48.8 L64.78,48.8 L64.78,51.29 L66.88,51.29 L66.88,52 L64,52 L64,45 L66.88,45 L66.88,45.71 L64.78,45.71 L64.78,48.1 Z M68.29,46.34 L68.29,52 L67.59,52 L67.59,45 L68.58,45 L70.2,50.06 L70.2,45 L70.89,45 L70.89,52 L70.08,52 L68.29,46.34 Z M73.49,52 L72.71,52 L72.71,45.71 L71.42,45.71 L71.42,45 L74.78,45 L74.78,45.71 L73.49,45.71 L73.49,52 Z" id="SOFTWARE-DEVLOPMENT"></path>
        </g>
    </g>
</svg>